<?xml version="1.0" encoding="utf-8"?>
<!-- Generator: Adobe Illustrator 24.2.0, SVG Export Plug-In . SVG Version: 6.00 Build 0)  -->
<svg version="1.1" id="Layer_1" xmlns="http://www.w3.org/2000/svg" xmlns:xlink="http://www.w3.org/1999/xlink" x="0px" y="0px"
	 viewBox="0 0 1024 768" style="enable-background:new 0 0 1024 768;" xml:space="preserve">
<style type="text/css">
	.st0{fill:none;}
	.st1{opacity:2.000000e-02;fill:#444444;}
	.st2{opacity:2.000000e-02;}
	.st3{opacity:2.000000e-02;fill:#AAAAAA;}
	.st4{opacity:2.000000e-02;fill:#DDDDDD;}
	.st5{opacity:2.000000e-02;fill:#999999;}
	.st6{opacity:2.000000e-02;fill:#FFFFFF;}
	.st7{opacity:2.000000e-02;fill:#666666;}
	.st8{opacity:2.000000e-02;fill:#222222;}
	.st9{fill:#FFFFFF;}
	.st10{fill:url(#SVGID_1_);}
	.st11{fill:url(#SVGID_2_);}
</style>
<pattern  y="768" width="1080" height="900" patternUnits="userSpaceOnUse" id="b" viewBox="90 -900 1080 900" style="overflow:visible;">
	<g>
		<rect x="90" y="-900" class="st0" width="1080" height="900"/>
		<g>
			<g>
				<polygon class="st1" points="180,-150 90,-300 270,-300 				"/>
			</g>
			<g>
				<polygon class="st2" points="180,-150 270,0 90,0 				"/>
			</g>
			<g>
				<polygon class="st3" points="360,-150 450,0 270,0 				"/>
			</g>
			<g>
				<polygon class="st4" points="540,-150 450,-300 630,-300 				"/>
			</g>
			<g>
				<polygon class="st5" points="540,-150 630,0 450,0 				"/>
			</g>
			<g>
				<polygon class="st2" points="720,-150 630,-300 810,-300 				"/>
			</g>
			<g>
				<polygon class="st4" points="720,-150 810,0 630,0 				"/>
			</g>
			<g>
				<polygon class="st1" points="900,-150 810,-300 990,-300 				"/>
			</g>
			<g>
				<polygon class="st6" points="900,-150 990,0 810,0 				"/>
			</g>
			<g>
				<polygon class="st4" points="1080,-150 990,-300 1170,-300 				"/>
			</g>
			<g>
				<polygon class="st1" points="1080,-150 1170,0 990,0 				"/>
			</g>
			<g>
				<polygon class="st4" points="180,-450 90,-600 270,-600 				"/>
			</g>
			<g>
				<polygon class="st2" points="180,-450 270,-300 90,-300 				"/>
			</g>
			<g>
				<polygon class="st7" points="360,-450 270,-600 450,-600 				"/>
			</g>
			<g>
				<polygon class="st3" points="360,-450 450,-300 270,-300 				"/>
			</g>
			<g>
				<polygon class="st4" points="540,-450 450,-600 630,-600 				"/>
			</g>
			<g>
				<polygon class="st5" points="540,-450 630,-300 450,-300 				"/>
			</g>
			<g>
				<polygon class="st5" points="720,-450 630,-600 810,-600 				"/>
			</g>
			<g>
				<polygon class="st6" points="720,-450 810,-300 630,-300 				"/>
			</g>
			<g>
				<polygon class="st2" points="900,-450 810,-600 990,-600 				"/>
			</g>
			<g>
				<polygon class="st4" points="900,-450 990,-300 810,-300 				"/>
			</g>
			<g>
				<polygon class="st3" points="1080,-450 990,-600 1170,-600 				"/>
			</g>
			<g>
				<polygon class="st1" points="1080,-450 1170,-300 990,-300 				"/>
			</g>
			<g>
				<polygon class="st8" points="180,-750 90,-900 270,-900 				"/>
			</g>
			<g>
				<polygon class="st2" points="360,-750 270,-900 450,-900 				"/>
			</g>
			<g>
				<polygon class="st4" points="360,-750 450,-600 270,-600 				"/>
			</g>
			<g>
				<polygon class="st2" points="540,-750 630,-600 450,-600 				"/>
			</g>
			<g>
				<polygon class="st2" points="720,-750 630,-900 810,-900 				"/>
			</g>
			<g>
				<polygon class="st1" points="720,-750 810,-600 630,-600 				"/>
			</g>
			<g>
				<polygon class="st3" points="900,-750 810,-900 990,-900 				"/>
			</g>
			<g>
				<polygon class="st7" points="900,-750 990,-600 810,-600 				"/>
			</g>
			<g>
				<polygon class="st5" points="1080,-750 990,-900 1170,-900 				"/>
			</g>
			<g>
				<polygon class="st5" points="270,0 180,-150 360,-150 				"/>
			</g>
			<g>
				<polygon class="st1" points="450,0 360,-150 540,-150 				"/>
			</g>
			<g>
				<polygon class="st6" points="630,0 540,-150 720,-150 				"/>
			</g>
			<g>
				<polygon class="st2" points="990,0 900,-150 1080,-150 				"/>
			</g>
			<g>
				<polygon class="st8" points="90,-300 0,-450 180,-450 				"/>
			</g>
			<g>
				<polygon class="st6" points="90,-300 180,-150 0,-150 				"/>
			</g>
			<g>
				<polygon class="st6" points="270,-300 180,-450 360,-450 				"/>
			</g>
			<g>
				<polygon class="st7" points="270,-300 360,-150 180,-150 				"/>
			</g>
			<g>
				<polygon class="st8" points="450,-300 360,-450 540,-450 				"/>
			</g>
			<g>
				<polygon class="st6" points="450,-300 540,-150 360,-150 				"/>
			</g>
			<g>
				<polygon class="st1" points="630,-300 540,-450 720,-450 				"/>
			</g>
			<g>
				<polygon class="st8" points="630,-300 720,-150 540,-150 				"/>
			</g>
			<g>
				<polygon class="st3" points="810,-300 720,-450 900,-450 				"/>
			</g>
			<g>
				<polygon class="st7" points="810,-300 900,-150 720,-150 				"/>
			</g>
			<g>
				<polygon class="st6" points="990,-300 900,-450 1080,-450 				"/>
			</g>
			<g>
				<polygon class="st5" points="990,-300 1080,-150 900,-150 				"/>
			</g>
			<g>
				<polygon class="st2" points="90,-600 0,-750 180,-750 				"/>
			</g>
			<g>
				<polygon class="st7" points="90,-600 180,-450 0,-450 				"/>
			</g>
			<g>
				<polygon class="st3" points="270,-600 180,-750 360,-750 				"/>
			</g>
			<g>
				<polygon class="st1" points="270,-600 360,-450 180,-450 				"/>
			</g>
			<g>
				<polygon class="st1" points="450,-600 360,-750 540,-750 				"/>
			</g>
			<g>
				<polygon class="st5" points="450,-600 540,-450 360,-450 				"/>
			</g>
			<g>
				<polygon class="st7" points="630,-600 720,-450 540,-450 				"/>
			</g>
			<g>
				<polygon class="st8" points="810,-600 720,-750 900,-750 				"/>
			</g>
			<g>
				<polygon class="st6" points="990,-600 900,-750 1080,-750 				"/>
			</g>
			<g>
				<polygon class="st8" points="990,-600 1080,-450 900,-450 				"/>
			</g>
			<g>
				<polygon class="st4" points="90,-900 180,-750 0,-750 				"/>
			</g>
			<g>
				<polygon class="st1" points="270,-900 360,-750 180,-750 				"/>
			</g>
			<g>
				<polygon class="st6" points="450,-900 540,-750 360,-750 				"/>
			</g>
			<g>
				<polygon class="st3" points="630,-900 720,-750 540,-750 				"/>
			</g>
			<g>
				<polygon class="st6" points="810,-900 900,-750 720,-750 				"/>
			</g>
			<g>
				<polygon class="st8" points="990,-900 1080,-750 900,-750 				"/>
			</g>
			<g>
				<polygon class="st8" points="1170,-300 1080,-450 1260,-450 				"/>
			</g>
			<g>
				<polygon class="st6" points="1170,-300 1260,-150 1080,-150 				"/>
			</g>
			<g>
				<polygon class="st2" points="1170,-600 1080,-750 1260,-750 				"/>
			</g>
			<g>
				<polygon class="st7" points="1170,-600 1260,-450 1080,-450 				"/>
			</g>
			<g>
				<polygon class="st4" points="1170,-900 1260,-750 1080,-750 				"/>
			</g>
		</g>
	</g>
</pattern>
<rect class="st9" width="540" height="450"/>
<linearGradient id="SVGID_1_" gradientUnits="userSpaceOnUse" x1="933.274" y1="768" x2="933.274" y2="0" gradientTransform="matrix(0.225 -0.9744 -0.9744 -0.225 1044.153 1464.6802)">
	<stop  offset="0" style="stop-color:#FFFFFF"/>
	<stop  offset="1" style="stop-color:#EEDEFF"/>
</linearGradient>
<rect class="st10" width="1024" height="768"/>
<pattern  id="SVGID_2_" xlink:href="#b" patternTransform="matrix(1.2064 0 0 -1.2064 1566.9371 -20140.2676)">
</pattern>
<rect class="st11" width="1024" height="768"/>
</svg>
